<?xml version="1.0" encoding="UTF-8" standalone="no"?>
<!DOCTYPE svg  PUBLIC '-//W3C//DTD SVG 1.1//EN'  'http://www.w3.org/Graphics/SVG/1.1/DTD/svg11.dtd'>
<svg xmlns="http://www.w3.org/2000/svg">
<defs>
<font id="Purista-SemiBold" horiz-adv-x="670">
<font-face underline-position="-50" font-weight="600" descent="-200" panose-1="0 0 0 0 0 0 0 0 0 0" units-per-em="1000" unicode-range="U+0020-2265" bbox="-46 -210 1109 918" x-height="520" underline-thickness="50" font-family="Purista" ascent="800" cap-height="700"/>
<missing-glyph horiz-adv-x="0"/>
<glyph glyph-name=".notdef" horiz-adv-x="0"/>
<glyph glyph-name=".null" horiz-adv-x="0"/>
<glyph glyph-name="nonmarkingreturn" horiz-adv-x="333"/>
<glyph glyph-name="space" horiz-adv-x="300" unicode=" "/>
<glyph glyph-name="exclam" horiz-adv-x="281" unicode="!" d="M196 129v-129h-111v129h111zM196 700v-492h-111v492h111z"/>
<glyph glyph-name="quotedbl" horiz-adv-x="428" unicode='&quot;' d="M251 434l-15 266h127l-15 -266h-97zM80 434l-15 266h126l-15 -266h-96z"/>
<glyph glyph-name="numbersign" horiz-adv-x="731" unicode="#" d="M313 432l-53 -164h158l52 164h-157zM332 0l57 179h-157l-57 -179h-98l57 179h-114v89h142l53 164h-107v89h136l57 179h98l-58 -179h158l57 179h98l-57 -179h114v-89h-143l-53 -164h108v-89h-136l-57 -179h-98z"/>
<glyph glyph-name="dollar" horiz-adv-x="630" unicode="$" d="M259 -100v100h-41q-68 0 -110.5 42t-42.5 111v62h119v-56q0 -26 14.5 -40.5t40.5 -14.5h152q26 0 40.5 14.5t14.5 40.5v85q0 26 -15 40.5t-40 14.5h-174q-68 0 -110 42t-42 111v95q0 69 42 111t110 42h42v100h111v-100h42q68 0 110.5 -42t42.5 -111v-62h-119v56 q0 26 -14.5 41t-40.5 15h-152q-26 0 -40.5 -15t-14.5 -41v-83q0 -26 14.5 -41t40.5 -15h174q68 0 110 -42t42 -111v-96q0 -69 -42 -111t-110 -42h-43v-100h-111z"/>
<glyph glyph-name="percent" horiz-adv-x="794" unicode="%" d="M107 0l482 700h98l-481 -700h-99zM744 76q0 -34 -21 -55t-55 -21h-112q-34 0 -55 21t-21 55v198q0 34 21 55t55 21h112q34 0 55 -21t21 -55v-198zM668 94v162q0 27 -26 27h-60q-26 0 -26 -27v-162q0 -26 26 -26h60q26 0 26 26zM315 426q0 -34 -20.5 -55t-55.5 -21h-113 q-34 0 -55 21t-21 55v198q0 34 21 55t55 21h113q35 0 55.5 -21t20.5 -55v-198zM239 444v162q0 27 -26 27h-61q-26 0 -26 -27v-162q0 -26 26 -26h61q26 0 26 26z"/>
<glyph glyph-name="ampersand" horiz-adv-x="638" unicode="&amp;" d="M374 104q25 0 40 14t15 36v145h-190q-25 0 -40 -14.5t-15 -40.5v-85q0 -26 14.5 -40.5t40.5 -14.5h135zM548 299v-299h-88l-15 47q-40 -47 -115 -47h-113q-68 0 -110 42.5t-42 110.5v62q0 47 21.5 82.5t58.5 52.5q-36 18 -56.5 53.5t-20.5 82.5v61q0 69 42 111t111 42 h174q68 0 110.5 -42t42.5 -111v-58h-119v52q0 26 -14.5 41t-40.5 15h-132q-26 0 -41 -15t-15 -41v-83q0 -26 15 -41t41 -15h396v-103h-90z"/>
<glyph glyph-name="quotesingle" horiz-adv-x="256" unicode="&apos;" d="M80 434l-15 266h126l-15 -266h-96z"/>
<glyph glyph-name="parenleft" horiz-adv-x="309" unicode="(" d="M289 835v-103h-50q-26 0 -40.5 -15t-14.5 -41v-652q0 -26 14.5 -41t40.5 -15h50v-103h-72q-68 0 -110 42t-42 111v664q0 69 42 111t110 42h72z"/>
<glyph glyph-name="parenright" horiz-adv-x="309" unicode=")" d="M20 -135v103h50q26 0 40.5 15t14.5 41v652q0 26 -14.5 41t-40.5 15h-50v103h72q68 0 110 -42t42 -111v-664q0 -69 -42 -111t-110 -42h-72z"/>
<glyph glyph-name="asterisk" horiz-adv-x="466" unicode="*" d="M30 521l25 77l147 -59l-9 161h80l-10 -159l149 58l24 -77l-152 -40l100 -122l-65 -47l-86 136l-87 -136l-65 47l100 121z"/>
<glyph glyph-name="plus" horiz-adv-x="512" unicode="+" d="M205 399v183h101v-183h176v-96h-176v-182h-101v182h-175v96h175z"/>
<glyph glyph-name="comma" horiz-adv-x="256" unicode="," d="M65 -115v259h126l-45 -259h-81z"/>
<glyph glyph-name="hyphen" horiz-adv-x="276" unicode="-" d="M30 214v96h216v-96h-216z"/>
<glyph glyph-name="period" horiz-adv-x="256" unicode="." d="M65 0v144h126v-144h-126z"/>
<glyph glyph-name="slash" horiz-adv-x="330" unicode="/" d="M-45 -135l322 970h98l-322 -970h-98z"/>
<glyph glyph-name="zero" horiz-adv-x="630" unicode="0" d="M565 153q0 -68 -42.5 -110.5t-110.5 -42.5h-195q-68 0 -110 42.5t-42 110.5v394q0 69 42 111t110 42h195q68 0 110.5 -42t42.5 -111v-394zM446 159v382q0 26 -14.5 41t-40.5 15h-152q-26 0 -40.5 -15t-14.5 -41v-382q0 -26 14.5 -40.5t40.5 -14.5h152q26 0 40.5 14.5 t14.5 40.5z"/>
<glyph glyph-name="one" horiz-adv-x="371" unicode="1" d="M306 700v-700h-118v580l-155 -111v120l155 111h118z"/>
<glyph glyph-name="two" horiz-adv-x="610" unicode="2" d="M491 355l-269 -251h323v-104h-480v104l345 321q16 15 16 42v74q0 26 -14.5 41t-40.5 15h-132q-26 0 -40.5 -15t-14.5 -41v-98h-119v104q0 69 42.5 111t110.5 42h175q68 0 110 -42t42 -111v-70q0 -73 -54 -122z"/>
<glyph glyph-name="three" horiz-adv-x="613" unicode="3" d="M265 299v103h106q26 0 40.5 15t14.5 41v83q0 26 -14.5 41t-40.5 15h-132q-26 0 -40.5 -15t-14.5 -41v-78h-119v84q0 69 42.5 111t110.5 42h174q69 0 111 -42t42 -111v-61q0 -98 -78 -136q38 -17 59.5 -52t21.5 -83v-62q0 -69 -42.5 -111t-110.5 -42h-177q-68 0 -110.5 42 t-42.5 111v85h119v-79q0 -26 14.5 -40.5t40.5 -14.5h135q26 0 40.5 14.5t14.5 40.5v85q0 26 -14.5 40.5t-40.5 14.5h-109z"/>
<glyph glyph-name="four" horiz-adv-x="600" unicode="4" d="M148 226h233v309zM381 0v123h-361v103l359 474h121v-474h80v-103h-80v-123h-119z"/>
<glyph glyph-name="five" horiz-adv-x="610" unicode="5" d="M65 266v434h460v-103h-341v-181q40 29 95 29h113q69 0 111 -42t42 -111v-139q0 -68 -42 -110.5t-111 -42.5h-174q-68 0 -110.5 42.5t-42.5 110.5v45h119v-39q0 -26 14.5 -40.5t40.5 -14.5h132q55 0 55 55v127q0 55 -55 55h-132q-26 0 -40.5 -14.5t-14.5 -40.5v-20h-119z "/>
<glyph glyph-name="six" horiz-adv-x="610" unicode="6" d="M371 104q55 0 55 55v92q0 55 -55 55h-132q-52 0 -55 -50v-97q0 -26 14.5 -40.5t40.5 -14.5h132zM184 541v-160q40 29 95 29h113q69 0 111 -42t42 -111v-104q0 -68 -42 -110.5t-111 -42.5h-175q-68 0 -110 42.5t-42 110.5v394q0 69 42 111t110 42h175q69 0 111 -42 t42 -111v-62h-119v56q0 26 -14.5 41t-40.5 15h-132q-26 0 -40.5 -15t-14.5 -41z"/>
<glyph glyph-name="seven" horiz-adv-x="560" unicode="7" d="M94 0l305 597h-361v103h484v-103l-305 -597h-123z"/>
<glyph glyph-name="eight" horiz-adv-x="630" unicode="8" d="M389 597h-147q-26 0 -41 -15t-15 -41v-83q0 -26 15 -41t41 -15h147q26 0 40.5 15t14.5 41v83q0 26 -14.5 41t-40.5 15zM391 299h-152q-25 0 -40 -14.5t-15 -40.5v-85q0 -26 14.5 -40.5t40.5 -14.5h152q55 0 55 55v85q0 26 -14.5 40.5t-40.5 14.5zM218 0 q-68 0 -110.5 42.5t-42.5 110.5v62q0 48 21 83t59 52q-36 18 -56.5 53.5t-20.5 82.5v61q0 69 42 111t111 42h189q68 0 110.5 -42t42.5 -111v-61q0 -97 -78 -136q38 -17 59 -52t21 -83v-62q0 -68 -42 -110.5t-111 -42.5h-194z"/>
<glyph glyph-name="nine" horiz-adv-x="610" unicode="9" d="M239 597q-26 0 -40.5 -15t-14.5 -41v-109q0 -26 14.5 -41t40.5 -15h132q25 0 39 13.5t16 37.5v114q0 26 -14.5 41t-40.5 15h-132zM371 104q55 0 55 55v142q-39 -28 -94 -28h-114q-68 0 -110.5 42t-42.5 111v121q0 69 42.5 111t110.5 42h175q68 0 110 -42t42 -111v-394 q0 -69 -42 -111t-110 -42h-175q-68 0 -110.5 42t-42.5 111v47h119v-41q0 -26 14.5 -40.5t40.5 -14.5h132z"/>
<glyph glyph-name="colon" horiz-adv-x="256" unicode=":" d="M65 376v144h126v-144h-126zM65 0v144h126v-144h-126z"/>
<glyph glyph-name="semicolon" horiz-adv-x="256" unicode=";" d="M65 -115v259h126l-45 -259h-81zM65 376v144h126v-144h-126z"/>
<glyph glyph-name="less" horiz-adv-x="512" unicode="&lt;" d="M482 130l-452 173v97l452 172v-107l-331 -114l331 -114v-107z"/>
<glyph glyph-name="equal" horiz-adv-x="512" unicode="=" d="M30 274h452v-96h-452v96zM30 524h452v-96h-452v96z"/>
<glyph glyph-name="greater" horiz-adv-x="512" unicode="&gt;" d="M30 572l452 -172v-97l-452 -173v107l332 114l-332 114v107z"/>
<glyph glyph-name="question" horiz-adv-x="632" unicode="?" d="M359 129v-129h-111v129h111zM248 208v42q0 67 40.5 108t107.5 41h9q24 0 37.5 13.5t13.5 37.5v103q0 24 -13.5 37.5t-37.5 13.5h-177q-25 0 -38.5 -13.5t-13.5 -37.5v-68h-111v66q0 67 41 108t107 41h205q67 0 108 -41t41 -108v-99q0 -68 -40.5 -108.5t-108.5 -40.5h-8 q-24 0 -37.5 -13.5t-13.5 -38.5v-43h-111z"/>
<glyph glyph-name="at" horiz-adv-x="1039" unicode="@" d="M440 96q24 0 44 15l139 118l26 145v7q0 43 -47 43h-105q-26 0 -43 -14.5t-21 -40.5l-39 -218q-1 -4 -1 -13q0 -42 47 -42zM756 0q-64 0 -101 31.5t-43 83.5l-86 -73q-50 -42 -119 -42q-59 0 -93 32t-34 87q0 17 3 33l38 215q12 69 61.5 111t118.5 42h61q74 0 103 -50 l10 50h111l-65 -372q-2 -14 -2 -19q0 -24 13.5 -38t37.5 -14q59 0 100.5 85t41.5 190q0 133 -83 210.5t-228 77.5q-199 0 -336 -138t-137 -354q0 -133 82.5 -210.5t228.5 -77.5q121 0 221 53l27 -67q-117 -56 -248 -56q-182 0 -285.5 96t-103.5 262q0 163 74.5 292.5 t199.5 199.5t277 70q181 0 284.5 -96t103.5 -262q0 -148 -65 -250t-168 -102z"/>
<glyph glyph-name="A" horiz-adv-x="633" unicode="A" d="M314 574l-106 -307h212zM389 700l244 -700h-125l-55 164h-276l-56 -164h-121l244 700h145z"/>
<glyph glyph-name="B" horiz-adv-x="635" unicode="B" d="M474 458v83q0 26 -15 41t-41 15h-234v-195h234q26 0 41 15t15 41zM476 159v85q0 26 -15 40.5t-40 14.5h-237v-195h237q26 0 40.5 14.5t14.5 40.5zM592 547v-61q0 -97 -78 -136q38 -17 59.5 -52t21.5 -83v-62q0 -68 -42.5 -110.5t-110.5 -42.5h-377v700h374q69 0 111 -42 t42 -111z"/>
<glyph glyph-name="C" d="M605 463h-119v78q0 26 -14.5 41t-40.5 15h-192q-26 0 -40.5 -15t-14.5 -41v-382q0 -26 14.5 -40.5t40.5 -14.5h192q26 0 40.5 14.5t14.5 40.5v79h119v-85q0 -68 -42.5 -110.5t-110.5 -42.5h-235q-68 0 -110 42.5t-42 110.5v394q0 69 42 111t110 42h235q68 0 110.5 -42 t42.5 -111v-84z" unicode="C"/>
<glyph glyph-name="D" d="M605 153q0 -68 -42.5 -110.5t-110.5 -42.5h-387v700h387q68 0 110.5 -42t42.5 -111v-394zM486 159v382q0 26 -14.5 41t-40.5 15h-247v-493h247q26 0 40.5 14.5t14.5 40.5z" unicode="D"/>
<glyph glyph-name="E" horiz-adv-x="575" unicode="E" d="M65 0v700h470v-103h-351v-195h301v-103h-301v-195h351v-104h-470z"/>
<glyph glyph-name="F" horiz-adv-x="515" unicode="F" d="M65 0v700h450v-103h-331v-220h281v-103h-281v-274h-119z"/>
<glyph glyph-name="G" d="M605 372v-372h-88l-15 47q-42 -47 -115 -47h-170q-68 0 -110 42.5t-42 110.5v394q0 69 42 111t110 42h235q68 0 110.5 -42t42.5 -111v-69h-119v63q0 26 -14.5 41t-40.5 15h-192q-26 0 -40.5 -15t-14.5 -41v-382q0 -26 14.5 -40.5t40.5 -14.5h192q24 0 39 13t16 37v114 h-184v104h303z" unicode="G"/>
<glyph glyph-name="H" d="M486 0v299h-302v-299h-119v700h119v-298h302v298h119v-700h-119z" unicode="H"/>
<glyph glyph-name="I" horiz-adv-x="249" unicode="I" d="M65 0v700h119v-700h-119z"/>
<glyph glyph-name="J" horiz-adv-x="607" unicode="J" d="M424 700h118v-551q0 -67 -41 -108t-108 -41h-212q-67 0 -107.5 41t-40.5 108v89h118v-83q0 -24 13.5 -37.5t38.5 -13.5h169q25 0 38.5 13.5t13.5 37.5v545z"/>
<glyph glyph-name="K" horiz-adv-x="614" unicode="K" d="M461 0l-277 339v-339h-119v700h119v-339l277 339h143l-281 -344l291 -356h-153z"/>
<glyph glyph-name="L" horiz-adv-x="555" unicode="L" d="M65 0v700h119v-596h351v-104h-470z"/>
<glyph glyph-name="M" horiz-adv-x="750" unicode="M" d="M566 0v466l-191 -360l-191 360v-466h-119v700h115l195 -368l195 368h115v-700h-119z"/>
<glyph glyph-name="N" d="M494 0l-310 482v-482h-119v700h111l310 -482v482h119v-700h-111z" unicode="N"/>
<glyph glyph-name="O" d="M605 153q0 -68 -42.5 -110.5t-110.5 -42.5h-235q-68 0 -110 42.5t-42 110.5v394q0 69 42 111t110 42h235q68 0 110.5 -42t42.5 -111v-394zM486 159v382q0 26 -14.5 41t-40.5 15h-192q-26 0 -40.5 -15t-14.5 -41v-382q0 -26 14.5 -40.5t40.5 -14.5h192q26 0 40.5 14.5 t14.5 40.5z" unicode="O"/>
<glyph glyph-name="P" horiz-adv-x="612" unicode="P" d="M580 402q0 -69 -42.5 -111t-110.5 -42h-243v-249h-119v700h362q68 0 110.5 -42t42.5 -111v-145zM461 408v133q0 26 -14.5 41t-40.5 15h-222v-245h222q26 0 40.5 15t14.5 41z"/>
<glyph glyph-name="Q" d="M486 159v382q0 26 -14.5 41t-40.5 15h-192q-26 0 -40.5 -15t-14.5 -41v-382q0 -26 14.5 -40.5t40.5 -14.5h192q26 0 40.5 14.5t14.5 40.5zM276 -140v140h-59q-68 0 -110 42.5t-42 110.5v394q0 69 42 111t110 42h235q68 0 110.5 -42t42.5 -111v-394q0 -68 -42.5 -110.5 t-110.5 -42.5h-57v-140h-119z" unicode="Q"/>
<glyph glyph-name="R" horiz-adv-x="630" unicode="R" d="M466 408v133q0 26 -14.5 41t-40.5 15h-227v-245h227q26 0 40.5 15t14.5 41zM585 402q0 -59 -31.5 -99t-84.5 -51l116 -252h-130l-109 249h-162v-249h-119v700h367q68 0 110.5 -42t42.5 -111v-145z"/>
<glyph glyph-name="S" horiz-adv-x="660" unicode="S" d="M443 402q68 0 110 -42t42 -111v-96q0 -69 -42 -111t-110 -42h-225q-68 0 -110.5 42t-42.5 111v62h119v-56q0 -26 14.5 -40.5t40.5 -14.5h182q26 0 40.5 14.5t14.5 40.5v85q0 26 -15 40.5t-40 14.5h-204q-68 0 -110 42t-42 111v95q0 69 42 111t110 42h225q68 0 110.5 -42 t42.5 -111v-62h-119v56q0 26 -14.5 41t-40.5 15h-182q-26 0 -40.5 -15t-14.5 -41v-83q0 -26 14.5 -41t40.5 -15h204z"/>
<glyph glyph-name="T" horiz-adv-x="563" unicode="T" d="M0 597v103h563v-103h-222v-597h-119v597h-222z"/>
<glyph glyph-name="U" d="M486 700h119v-547q0 -68 -42.5 -110.5t-110.5 -42.5h-235q-68 0 -110 42.5t-42 110.5v547h119v-541q0 -26 14.5 -40.5t40.5 -14.5h192q26 0 40.5 14.5t14.5 40.5v541z" unicode="U"/>
<glyph glyph-name="V" horiz-adv-x="626" unicode="V" d="M244 0l-244 700h125l189 -552l190 552h122l-244 -700h-138z"/>
<glyph glyph-name="W" horiz-adv-x="866" unicode="W" d="M175 0l-179 700h122l128 -535l132 535h115l130 -535l129 535h118l-179 -700h-134l-124 483l-124 -483h-134z"/>
<glyph glyph-name="X" horiz-adv-x="642" unicode="X" d="M479 0l-161 253l-162 -253h-135l231 347l-231 353h142l160 -252l164 252h134l-231 -347l231 -353h-142z"/>
<glyph glyph-name="Y" horiz-adv-x="635" unicode="Y" d="M377 257v-257h-119v257l-256 443h142l176 -323l178 323h134z"/>
<glyph glyph-name="Z" horiz-adv-x="627" unicode="Z" d="M55 104l376 493h-376v103h517v-103l-375 -493h375v-104h-517v104z"/>
<glyph glyph-name="bracketleft" horiz-adv-x="309" unicode="[" d="M289 835v-103h-105v-764h105v-103h-224v970h224z"/>
<glyph glyph-name="backslash" horiz-adv-x="330" unicode="\" d="M53 835l322 -970h-98l-322 970h98z"/>
<glyph glyph-name="bracketright" horiz-adv-x="309" unicode="]" d="M20 -135v103h105v764h-105v103h224v-970h-224z"/>
<glyph glyph-name="asciicircum" horiz-adv-x="526" unicode="^" d="M206 844h114l176 -470h-116l-120 352l-119 -352h-111z"/>
<glyph glyph-name="underscore" horiz-adv-x="510" unicode="_" d="M505 -91h-500v81h500v-81z"/>
<glyph glyph-name="grave" horiz-adv-x="248" unicode="`" d="M228 580h-88l-120 160h116z"/>
<glyph glyph-name="a" horiz-adv-x="546" unicode="a" d="M318 96q48 0 51 46v23q0 25 -13.5 38.5t-37.5 13.5h-113q-24 0 -37.5 -13.5t-13.5 -38.5v-18q0 -24 13.5 -37.5t37.5 -13.5h113zM481 0h-85l-14 44q-41 -44 -111 -44h-79q-67 0 -108 41t-41 108v7q0 67 41 108t108 41h79q59 0 98 -33v101q0 24 -13.5 37.5t-37.5 13.5h-90 q-25 0 -38.5 -13.5t-13.5 -37.5v-23h-111v21q0 67 41 108t108 41h118q67 0 108 -41t41 -108v-371z"/>
<glyph glyph-name="b" horiz-adv-x="558" unicode="b" d="M232 424q-53 0 -56 -50v-223q0 -26 15 -40.5t41 -14.5h105q25 0 40 15t15 40v218q0 26 -14.5 40.5t-40.5 14.5h-105zM65 0v740h111v-255q41 35 103 35h71q69 0 111 -42t42 -111v-214q0 -68 -42 -110.5t-111 -42.5h-71q-74 0 -116 47l-13 -47h-85z"/>
<glyph glyph-name="c" horiz-adv-x="538" unicode="c" d="M382 185h111v-32q0 -68 -42 -110.5t-111 -42.5h-133q-68 0 -110 42.5t-42 110.5v214q0 69 42 111t110 42h133q69 0 111 -42t42 -111v-32h-111v34q0 26 -14.5 40.5t-40.5 14.5h-105q-26 0 -41 -14.5t-15 -40.5v-218q0 -26 15 -40.5t41 -14.5h105q25 0 40 15t15 40v34z"/>
<glyph glyph-name="d" horiz-adv-x="558" unicode="d" d="M382 369q0 26 -14.5 40.5t-40.5 14.5h-105q-26 0 -41 -14.5t-15 -40.5v-218q0 -26 15 -40.5t41 -14.5h105q24 0 39 13.5t16 36.5v223zM493 740v-740h-85l-14 47q-42 -47 -114 -47h-72q-69 0 -111 42.5t-42 110.5v214q0 69 42 111t111 42h72q61 0 102 -35v255h111z"/>
<glyph glyph-name="e" horiz-adv-x="548" unicode="e" d="M166 369v-60h216v60q0 26 -14.5 40.5t-40.5 14.5h-105q-26 0 -41 -14.5t-15 -40.5zM382 170h111v-17q0 -68 -42 -110.5t-111 -42.5h-133q-68 0 -110 42.5t-42 110.5v214q0 69 42 111t110 42h133q69 0 111 -42t42 -111v-147h-327v-69q0 -26 15 -40.5t41 -14.5h105 q25 0 40 15t15 40v19z"/>
<glyph glyph-name="f" horiz-adv-x="361" unicode="f" d="M226 593v-73h135v-96h-135v-424h-111v424h-115v96h115v71q0 67 41 108t107 41h98v-96h-83q-25 0 -38.5 -13.5t-13.5 -37.5z"/>
<glyph glyph-name="g" horiz-adv-x="558" unicode="g" d="M166 369v-218q0 -26 15 -40.5t41 -14.5h105q25 0 40 15t15 40v218q0 26 -14.5 40.5t-40.5 14.5h-105q-26 0 -41 -14.5t-15 -40.5zM493 520v-567q0 -69 -42 -111t-110 -42h-133q-69 0 -111 42t-42 111v17h111v-19q0 -26 15 -40.5t41 -14.5h105q25 0 40 15t15 40v84 q-40 -35 -102 -35h-72q-69 0 -111 42.5t-42 110.5v214q0 69 42 111t111 42h72q72 0 114 -47l14 47h85z"/>
<glyph glyph-name="h" horiz-adv-x="568" unicode="h" d="M503 0h-111v369q0 26 -14.5 40.5t-40.5 14.5h-105q-26 0 -41 -14.5t-15 -40.5v-369h-111v740h111v-255q41 35 103 35h71q69 0 111 -42t42 -111v-367z"/>
<glyph glyph-name="i" horiz-adv-x="241" unicode="i" d="M65 595v129h111v-129h-111zM65 0v520h111v-520h-111z"/>
<glyph glyph-name="j" horiz-adv-x="241" unicode="j" d="M65 595v129h111v-129h-111zM65 -200v720h111v-720h-111z"/>
<glyph glyph-name="k" horiz-adv-x="512" unicode="k" d="M386 0l-210 250v-250h-111v740h111v-471l207 251h134l-210 -253l225 -267h-146z"/>
<glyph glyph-name="l" horiz-adv-x="241" unicode="l" d="M65 0v740h111v-740h-111z"/>
<glyph glyph-name="m" horiz-adv-x="818" unicode="m" d="M465 0h-112v369q0 55 -55 55h-66q-26 0 -41 -14.5t-15 -40.5v-369h-111v520h85l13 -47q42 47 116 47h33q83 0 126 -60q42 60 125 60h37q69 0 111 -42t42 -111v-367h-111v369q0 26 -15 40.5t-41 14.5h-66q-55 0 -55 -55v-369z"/>
<glyph glyph-name="n" horiz-adv-x="568" unicode="n" d="M503 0h-111v369q0 26 -14.5 40.5t-40.5 14.5h-105q-53 0 -56 -50v-374h-111v520h85l13 -47q42 47 116 47h71q69 0 111 -42t42 -111v-367z"/>
<glyph glyph-name="o" horiz-adv-x="548" unicode="o" d="M493 153q0 -68 -42 -110.5t-111 -42.5h-133q-68 0 -110 42.5t-42 110.5v214q0 69 42 111t110 42h133q69 0 111 -42t42 -111v-214zM382 151v218q0 26 -14.5 40.5t-40.5 14.5h-105q-26 0 -41 -14.5t-15 -40.5v-218q0 -26 15 -40.5t41 -14.5h105q25 0 40 15t15 40z"/>
<glyph glyph-name="p" horiz-adv-x="558" unicode="p" d="M392 151v218q0 26 -14.5 40.5t-40.5 14.5h-105q-53 0 -56 -50v-223q0 -26 15 -40.5t41 -14.5h105q25 0 40 15t15 40zM65 -200v720h85l13 -47q42 47 116 47h71q69 0 111 -42t42 -111v-214q0 -68 -42 -110.5t-111 -42.5h-71q-62 0 -103 35v-235h-111z"/>
<glyph glyph-name="q" horiz-adv-x="558" unicode="q" d="M166 369v-218q0 -26 15 -40.5t41 -14.5h105q25 0 40 15t15 40v218q0 26 -14.5 40.5t-40.5 14.5h-105q-26 0 -41 -14.5t-15 -40.5zM493 520v-720h-111v235q-40 -35 -102 -35h-72q-69 0 -111 42.5t-42 110.5v214q0 69 42 111t111 42h72q72 0 114 -47l14 47h85z"/>
<glyph glyph-name="r" horiz-adv-x="370" unicode="r" d="M370 520v-96h-138q-26 0 -41 -14.5t-15 -40.5v-369h-111v520h85l13 -47q42 47 116 47h91z"/>
<glyph glyph-name="s" horiz-adv-x="548" unicode="s" d="M345 306q66 0 107 -41t41 -108v-8q0 -67 -41 -108t-107 -41h-141q-67 0 -108 41t-41 108v20h111v-22q0 -24 13.5 -37.5t38.5 -13.5h113q24 0 37.5 14t13.5 38v18q0 24 -13.5 38t-37.5 14h-123q-66 0 -107 41t-41 108v4q0 67 41 108t107 41h131q67 0 108 -41t41 -108v-20 h-111v22q0 24 -13.5 37.5t-37.5 13.5h-103q-25 0 -38.5 -13.5t-13.5 -37.5v-16q0 -24 13.5 -37.5t38.5 -13.5h122z"/>
<glyph glyph-name="t" horiz-adv-x="361" unicode="t" d="M0 424v96h125v150l111 33v-183h125v-96h-125v-424h-111v424h-125z"/>
<glyph glyph-name="u" horiz-adv-x="568" unicode="u" d="M65 520h111v-369q0 -26 15 -40.5t41 -14.5h105q24 0 39 13.5t16 36.5v374h111v-520h-85l-14 47q-42 -47 -114 -47h-72q-69 0 -111 42t-42 111v367z"/>
<glyph glyph-name="v" horiz-adv-x="528" unicode="v" d="M330 0h-132l-188 520h119l138 -395l139 395h112z"/>
<glyph glyph-name="w" horiz-adv-x="771" unicode="w" d="M287 0h-126l-151 520h115l105 -384l104 384h111l103 -384l106 384h107l-151 -520h-125l-100 353z"/>
<glyph glyph-name="x" horiz-adv-x="531" unicode="x" d="M377 0l-114 176l-117 -176h-125l180 257l-180 263h132l115 -176l117 176h124l-180 -258l180 -262h-132z"/>
<glyph glyph-name="y" horiz-adv-x="528" unicode="y" d="M258 -200h-119l72 200h-13l-188 520h119l139 -396l138 396h112z"/>
<glyph glyph-name="z" horiz-adv-x="496" unicode="z" d="M40 96l278 328h-278v96h416v-96l-278 -328h278v-96h-416v96z"/>
<glyph glyph-name="braceleft" horiz-adv-x="339" unicode="{" d="M95 18v225q0 26 -14.5 41t-39.5 15h-41v103h41q25 0 39.5 14.5t14.5 40.5v225q0 69 42 111t110 42h72v-103h-50q-26 0 -40.5 -15t-14.5 -41v-191q0 -47 -21 -82.5t-57 -52.5q36 -17 57 -52.5t21 -82.5v-191q0 -26 14.5 -41t40.5 -15h50v-103h-72q-68 0 -110 42t-42 111z "/>
<glyph glyph-name="bar" horiz-adv-x="230" unicode="|" d="M65 -135v970h100v-970h-100z"/>
<glyph glyph-name="braceright" horiz-adv-x="339" unicode="}" d="M244 682v-225q0 -26 14.5 -40.5t39.5 -14.5h41v-104h-41q-25 0 -39.5 -14.5t-14.5 -40.5v-225q0 -69 -42 -111t-110 -42h-72v103h50q26 0 40.5 15t14.5 41v191q0 47 21 82.5t57 52.5q-36 17 -57 52.5t-21 82.5v191q0 26 -14.5 41t-40.5 15h-50v103h72q68 0 110 -42 t42 -111z"/>
<glyph glyph-name="asciitilde" horiz-adv-x="512" unicode="~" d="M182 344q-7 5 -19 5q-19 0 -27 -17l-30 -55l-67 32l33 62q31 61 94 61q26 0 52 -13l115 -60q10 -6 19 -6q18 0 28 18l26 49l67 -31l-29 -58q-31 -61 -95 -61q-26 0 -52 13z"/>
<glyph glyph-name="nbspace" horiz-adv-x="300" unicode=" "/>
<glyph glyph-name="exclamdown" horiz-adv-x="281" unicode="¡" d="M85 391v129h111v-129h-111zM85 -180v493h111v-493h-111z"/>
<glyph glyph-name="cent" horiz-adv-x="551" unicode="¢" d="M220 80v100h-23q-69 0 -110.5 42.5t-41.5 110.5v214q0 70 42.5 111.5t109.5 41.5h23v100h111v-100h22q69 0 111 -42t42 -111v-32h-112v34q0 55 -55 55h-127q-26 0 -41 -14.5t-15 -40.5v-218q0 -26 15.5 -40.5t40.5 -14.5h127q55 0 55 55v34h112v-32q0 -68 -42 -110.5 t-111 -42.5h-22v-100h-111z"/>
<glyph glyph-name="sterling" horiz-adv-x="618" unicode="£" d="M25 304v89h96v154q0 69 42 111t110 42h144q68 0 110.5 -42t42.5 -111v-62h-119v56q0 26 -14.5 41t-40.5 15h-101q-26 0 -41 -15t-15 -41v-148h187v-89h-187v-200h334v-104h-548v104h96v200h-96z"/>
<glyph glyph-name="currency" horiz-adv-x="647" unicode="¤" d="M168 351q0 -75 43.5 -122.5t111.5 -47.5t111.5 47.5t43.5 122.5t-43.5 122.5t-111.5 47.5t-111.5 -47.5t-43.5 -122.5zM57 351q0 88 44 154l-93 93l68 68l93 -94q65 45 154 45q87 0 153 -44l97 97l69 -68l-98 -97q45 -65 45 -154t-45 -154l94 -93l-68 -68l-93 94 q-65 -45 -154 -45q-88 0 -155 45l-95 -96l-68 68l96 96q-44 66 -44 153z"/>
<glyph glyph-name="yen" horiz-adv-x="635" unicode="¥" d="M77 314v89h99l-174 297h142l176 -323l178 323h134l-173 -297h99v-89h-147l-34 -57v-22h181v-88h-181v-147h-119v147h-181v88h181v22l-33 57h-148z"/>
<glyph glyph-name="brokenbar" horiz-adv-x="230" unicode="¦" d="M65 -135v366h100v-366h-100zM65 469v366h100v-366h-100z"/>
<glyph glyph-name="section" horiz-adv-x="603" unicode="§" d="M376 330h-148q-52 0 -52 -52v-56q0 -24 13.5 -38t38.5 -14h152q22 2 34.5 15.5t12.5 36.5v56q0 25 -13.5 38.5t-37.5 13.5zM538 253q0 -75 -50 -116q50 -41 50 -116v-72q0 -67 -41 -108t-107 -41h-171q-67 0 -108 41t-41 108v42h111v-44q0 -24 13.5 -37.5t38.5 -13.5h143 q24 0 37.5 13.5t13.5 37.5v76q0 24 -13.5 37.5t-37.5 13.5h-163q-66 0 -107 41t-41 108v24q0 75 49 116q-49 41 -49 116v72q0 67 41 108t107 41h171q67 0 108 -41t41 -108v-42h-111v44q0 24 -13.5 37.5t-37.5 13.5h-143q-25 0 -38.5 -13.5t-13.5 -37.5v-75q0 -52 52 -52h162 q66 0 107 -41t41 -108v-24z"/>
<glyph glyph-name="dieresis" horiz-adv-x="356" unicode="¨" d="M225 588v121h96v-121h-96zM20 588v121h96v-121h-96z"/>
<glyph glyph-name="copyright" horiz-adv-x="880" unicode="©" d="M532 294h77v-44q0 -48 -29 -77.5t-77 -29.5h-127q-47 0 -76 29.5t-29 77.5v200q0 48 29 77.5t76 29.5h127q48 0 77 -29.5t29 -77.5v-41h-77v37q0 43 -43 43h-98q-20 0 -31.5 -11.5t-11.5 -31.5v-192q0 -20 12 -31.5t31 -11.5h98q20 0 31.5 11.5t11.5 31.5v40zM80 350 q0 164 98 262t262 98t262 -98t98 -262t-98 -262t-262 -98t-262 98t-98 262zM158 350q0 -132 77 -211t205 -79t205.5 79t77.5 211t-77.5 211t-205.5 79t-205 -79t-77 -211z"/>
<glyph glyph-name="ordfeminine" horiz-adv-x="308" unicode="ª" d="M180 450q27 0 30 26v7q0 30 -30 30h-52q-30 0 -30 -30v-3q0 -30 30 -30h52zM285 388h-59l-9 26q-23 -26 -66 -26h-39q-40 0 -64.5 24.5t-24.5 64.5v5q0 40 24.5 64.5t64.5 24.5h39q36 0 59 -20v53q0 30 -30 30h-39q-30 0 -30 -30v-6h-75v13q0 40 24.5 64.5t64.5 24.5h72 q39 0 63.5 -24.5t24.5 -64.5v-223z"/>
<glyph glyph-name="guillemotleft" horiz-adv-x="480" unicode="«" d="M450 56l-220 154v100l220 154v-112l-127 -92l127 -91v-113zM240 56l-220 154v100l220 154v-112l-127 -92l127 -91v-113z"/>
<glyph glyph-name="logicalnot" horiz-adv-x="512" unicode="¬" d="M30 399h452v-278h-101v182h-351v96z"/>
<glyph glyph-name="registered" horiz-adv-x="366" unicode="®" d="M214 566v22q0 13 -12 13h-48v-48h48q12 0 12 13zM253 557q0 -30 -27 -38l27 -59h-42l-26 58h-31v-58h-39v175h100q17 0 27.5 -10.5t10.5 -27.5v-40zM64 547q0 -55 32.5 -88.5t86.5 -33.5t86.5 33.5t32.5 88.5q0 56 -32.5 89t-86.5 33t-86.5 -33t-32.5 -89zM30 547 q0 70 41.5 111.5t111.5 41.5t111.5 -41.5t41.5 -111.5t-41.5 -111.5t-111.5 -41.5t-111.5 41.5t-41.5 111.5z"/>
<glyph glyph-name="macron" horiz-adv-x="342" unicode="¯" d="M20 607v81h302v-81h-302z"/>
<glyph glyph-name="degree" horiz-adv-x="338" unicode="°" d="M96 564q0 -33 20 -53.5t53 -20.5q32 0 52.5 20.5t20.5 53.5t-20.5 53t-52.5 20q-33 0 -53 -20t-20 -53zM23 564q0 64 40.5 105t105.5 41t105.5 -41t40.5 -105t-40.5 -105t-105.5 -41t-105.5 41t-40.5 105z"/>
<glyph glyph-name="plusminus" horiz-adv-x="512" unicode="±" d="M30 96h452v-96h-452v96zM205 444v183h101v-183h176v-96h-176v-182h-101v182h-175v96h175z"/>
<glyph glyph-name="uni00B2" horiz-adv-x="358" unicode="²" d="M126 606v-35h-76v53q0 34 21 55t56 21h104q35 0 56 -21t21 -55v-33q0 -36 -27 -61l-128 -112h154v-68h-257v68l174 156q8 8 8 20v12q0 27 -26 27h-54q-26 0 -26 -27z"/>
<glyph glyph-name="uni00B3" horiz-adv-x="360" unicode="³" d="M154 491v68h53q26 0 26 26v21q0 27 -26 27h-55q-26 0 -26 -27v-21h-76v39q0 34 21 55t56 21h106q34 0 55 -21t21 -55v-32q0 -48 -37 -67q38 -19 38 -67v-32q0 -34 -21 -55t-55 -21h-107q-35 0 -56 21t-21 55v39h76v-21q0 -26 26 -26h56q27 0 27 26v20q0 27 -27 27h-54z "/>
<glyph glyph-name="acute" horiz-adv-x="248" unicode="´" d="M108 580h-88l92 160h116z"/>
<glyph glyph-name="mu" horiz-adv-x="568" unicode="µ" d="M65 520h111v-374q2 -23 16.5 -36.5t39.5 -13.5h105q25 0 40 15t15 40v369h111v-520h-85l-14 47q-42 -47 -114 -47h-72q-25 0 -42 4v-204h-111v720z"/>
<glyph glyph-name="paragraph" horiz-adv-x="675" unicode="¶" d="M151 541v-93q0 -26 15 -41t41 -15h101v205h-101q-26 0 -41 -15t-15 -41zM610 700v-700h-119v597h-65v-597h-118v289h-122q-69 0 -111 42t-42 111v105q0 69 42 111t111 42h424z"/>
<glyph glyph-name="periodcentered" horiz-adv-x="256" unicode="·" d="M65 279v143h126v-143h-126z"/>
<glyph glyph-name="cedilla" horiz-adv-x="194" unicode="¸" d="M123 -200h-103l55 80l-55 80h103l51 -80z"/>
<glyph glyph-name="uni00B9" horiz-adv-x="253" unicode="¹" d="M203 700v-350h-75v274l-78 -56v77l78 55h75z"/>
<glyph glyph-name="ordmasculine" horiz-adv-x="308" unicode="º" d="M285 480q0 -41 -25 -66.5t-66 -25.5h-80q-41 0 -66 25.5t-25 66.5v128q0 41 25 66.5t66 25.5h80q41 0 66 -25.5t25 -66.5v-128zM210 487v115q0 32 -32 32h-48q-32 0 -32 -32v-115q0 -33 32 -33h48q32 0 32 33z"/>
<glyph glyph-name="guillemotright" horiz-adv-x="480" unicode="»" d="M30 464l220 -154v-100l-220 -154v112l127 92l-127 91v113zM240 464l220 -154v-100l-220 -154v112l127 92l-127 91v113z"/>
<glyph glyph-name="onequarter" horiz-adv-x="708" unicode="¼" d="M51 0l481 700h99l-482 -700h-98zM450 129h100v119zM550 0v61h-181v68l180 221h77v-221h40v-68h-40v-61h-76zM196 700v-350h-75v274l-78 -56v77l78 55h75z"/>
<glyph glyph-name="onehalf" horiz-adv-x="723" unicode="½" d="M499 256v-35h-76v53q0 34 21 55t56 21h104q35 0 56 -21t21 -55v-33q0 -36 -27 -61l-128 -112h154v-68h-257v68l174 156q8 8 8 20v12q0 27 -26 27h-54q-26 0 -26 -27zM51 0l481 700h99l-482 -700h-98zM196 700v-350h-75v274l-78 -56v77l78 55h75z"/>
<glyph glyph-name="threequarters" horiz-adv-x="752" unicode="¾" d="M147 491v68h52q27 0 27 26v21q0 27 -26 27h-55q-26 0 -26 -27v-21h-76v39q0 34 21 55t55 21h106q35 0 55.5 -21t20.5 -55v-32q0 -47 -36 -67q37 -19 37 -67v-32q0 -34 -21 -55t-55 -21h-107q-34 0 -55 21t-21 55v39h76v-21q0 -26 26 -26h56q26 0 26 26v20q0 27 -26 27 h-54zM95 0l481 700h99l-482 -700h-98zM494 129h100v119zM594 0v61h-181v68l180 221h77v-221h40v-68h-40v-61h-76z"/>
<glyph glyph-name="questiondown" horiz-adv-x="632" unicode="¿" d="M274 391v129h111v-129h-111zM274 313h111v-42q0 -67 -41 -108t-107 -41h-9q-52 0 -52 -52v-103q0 -24 13.5 -37.5t38.5 -13.5h177q24 0 37.5 13.5t13.5 37.5v68h111v-66q0 -67 -40.5 -108t-107.5 -41h-205q-67 0 -108 41t-41 108v100q0 67 41 108t108 41h8 q25 0 38.5 13.5t13.5 37.5v44z"/>
<glyph glyph-name="Agrave" horiz-adv-x="633" unicode="À" d="M392 740h-95l-115 145h123zM314 574l-106 -307h212zM389 700l244 -700h-125l-55 164h-276l-56 -164h-121l244 700h145z"/>
<glyph glyph-name="Aacute" horiz-adv-x="633" unicode="Á" d="M336 740h-95l87 145h124zM314 574l-106 -307h212zM389 700l244 -700h-125l-55 164h-276l-56 -164h-121l244 700h145z"/>
<glyph glyph-name="Acircumflex" horiz-adv-x="633" unicode="Â" d="M378 885l104 -145h-103l-64 87l-65 -87h-100l104 145h124zM314 574l-106 -307h212zM389 700l244 -700h-125l-55 164h-276l-56 -164h-121l244 700h145z"/>
<glyph glyph-name="Atilde" horiz-adv-x="633" unicode="Ã" d="M242 804q-7 5 -18 5q-20 0 -28 -17l-30 -55l-67 32l33 62q31 61 94 61q26 0 52 -13l115 -60q10 -6 20 -6q18 0 27 18l26 49l68 -31l-30 -58q-31 -61 -95 -61q-26 0 -52 13zM314 574l-106 -307h212zM389 700l244 -700h-125l-55 164h-276l-56 -164h-121l244 700h145z"/>
<glyph glyph-name="Adieresis" horiz-adv-x="633" unicode="Ä" d="M391 744v121h96v-121h-96zM146 744v121h96v-121h-96zM314 574l-106 -307h212zM389 700l244 -700h-125l-55 164h-276l-56 -164h-121l244 700h145z"/>
<glyph glyph-name="Aring" horiz-adv-x="633" unicode="Å" d="M273 817q0 -49 43 -49t43 49t-43 49t-43 -49zM207 817q0 45 30.5 73t78.5 28q49 0 79 -28t30 -73t-30 -73t-79 -28q-48 0 -78.5 28t-30.5 73zM314 574l-106 -307h212zM389 700l244 -700h-125l-55 164h-276l-56 -164h-121l244 700h145z"/>
<glyph glyph-name="AE" horiz-adv-x="1025" unicode="Æ" d="M289 267h212v338zM0 0l433 700h537v-103h-351v-195h301v-103h-301v-195h351v-104h-469v164h-267l-101 -164h-133z"/>
<glyph glyph-name="Ccedilla" d="M366 -200h-103l55 80l-55 80h103l51 -80zM605 463h-119v78q0 26 -14.5 41t-40.5 15h-192q-26 0 -40.5 -15t-14.5 -41v-382q0 -26 14.5 -40.5t40.5 -14.5h192q26 0 40.5 14.5t14.5 40.5v79h119v-85q0 -68 -42.5 -110.5t-110.5 -42.5h-235q-68 0 -110 42.5t-42 110.5v394 q0 69 42 111t110 42h235q68 0 110.5 -42t42.5 -111v-84z" unicode="Ç"/>
<glyph glyph-name="Egrave" horiz-adv-x="575" unicode="È" d="M65 0v700h470v-103h-351v-195h301v-103h-301v-195h351v-104h-470zM362 740h-95l-115 145h123z"/>
<glyph glyph-name="Eacute" horiz-adv-x="575" unicode="É" d="M65 0v700h470v-103h-351v-195h301v-103h-301v-195h351v-104h-470zM307 740h-95l87 145h124z"/>
<glyph glyph-name="Ecircumflex" horiz-adv-x="575" unicode="Ê" d="M349 885l104 -145h-103l-64 87l-65 -87h-100l104 145h124zM65 0v700h470v-103h-351v-195h301v-103h-301v-195h351v-104h-470z"/>
<glyph glyph-name="Edieresis" horiz-adv-x="575" unicode="Ë" d="M65 0v700h470v-103h-351v-195h301v-103h-301v-195h351v-104h-470zM361 744v121h96v-121h-96zM116 744v121h96v-121h-96z"/>
<glyph glyph-name="Igrave" horiz-adv-x="249" unicode="Ì" d="M180 740h-95l-115 145h123zM65 0v700h119v-700h-119z"/>
<glyph glyph-name="Iacute" horiz-adv-x="249" unicode="Í" d="M164 740h-95l87 145h124zM65 0v700h119v-700h-119z"/>
<glyph glyph-name="Icircumflex" horiz-adv-x="249" unicode="Î" d="M187 885l104 -145h-103l-64 87l-65 -87h-100l104 145h124zM65 0v700h119v-700h-119z"/>
<glyph glyph-name="Idieresis" horiz-adv-x="249" unicode="Ï" d="M199 744v121h96v-121h-96zM-46 744v121h96v-121h-96zM65 0v700h119v-700h-119z"/>
<glyph glyph-name="Eth" d="M486 159v382q0 26 -14.5 41t-40.5 15h-247v-206h158v-81h-158v-206h247q26 0 40.5 14.5t14.5 40.5zM0 310v81h65v309h387q68 0 110.5 -42t42.5 -111v-394q0 -68 -42.5 -110.5t-110.5 -42.5h-387v310h-65z" unicode="Ð"/>
<glyph glyph-name="Ntilde" d="M494 0l-310 482v-482h-119v700h111l310 -482v482h119v-700h-111zM260 804q-7 5 -18 5q-20 0 -28 -17l-30 -55l-67 32l33 62q31 61 94 61q26 0 52 -13l115 -60q11 -6 20 -6q18 0 27 18l26 49l68 -31l-30 -58q-31 -61 -95 -61q-26 0 -52 13z" unicode="Ñ"/>
<glyph glyph-name="Ograve" d="M605 153q0 -68 -42.5 -110.5t-110.5 -42.5h-235q-68 0 -110 42.5t-42 110.5v394q0 69 42 111t110 42h235q68 0 110.5 -42t42.5 -111v-394zM486 159v382q0 26 -14.5 41t-40.5 15h-192q-26 0 -40.5 -15t-14.5 -41v-382q0 -26 14.5 -40.5t40.5 -14.5h192q26 0 40.5 14.5 t14.5 40.5zM410 740h-95l-115 145h123z" unicode="Ò"/>
<glyph glyph-name="Oacute" d="M605 153q0 -68 -42.5 -110.5t-110.5 -42.5h-235q-68 0 -110 42.5t-42 110.5v394q0 69 42 111t110 42h235q68 0 110.5 -42t42.5 -111v-394zM486 159v382q0 26 -14.5 41t-40.5 15h-192q-26 0 -40.5 -15t-14.5 -41v-382q0 -26 14.5 -40.5t40.5 -14.5h192q26 0 40.5 14.5 t14.5 40.5zM355 740h-95l87 145h124z" unicode="Ó"/>
<glyph glyph-name="Ocircumflex" d="M397 885l104 -145h-103l-64 87l-65 -87h-100l104 145h124zM605 153q0 -68 -42.5 -110.5t-110.5 -42.5h-235q-68 0 -110 42.5t-42 110.5v394q0 69 42 111t110 42h235q68 0 110.5 -42t42.5 -111v-394zM486 159v382q0 26 -14.5 41t-40.5 15h-192q-26 0 -40.5 -15t-14.5 -41 v-382q0 -26 14.5 -40.5t40.5 -14.5h192q26 0 40.5 14.5t14.5 40.5z" unicode="Ô"/>
<glyph glyph-name="Otilde" d="M605 153q0 -68 -42.5 -110.5t-110.5 -42.5h-235q-68 0 -110 42.5t-42 110.5v394q0 69 42 111t110 42h235q68 0 110.5 -42t42.5 -111v-394zM486 159v382q0 26 -14.5 41t-40.5 15h-192q-26 0 -40.5 -15t-14.5 -41v-382q0 -26 14.5 -40.5t40.5 -14.5h192q26 0 40.5 14.5 t14.5 40.5zM260 804q-7 5 -18 5q-20 0 -28 -17l-30 -55l-67 32l33 62q31 61 94 61q26 0 52 -13l115 -60q11 -6 20 -6q18 0 27 18l26 49l68 -31l-30 -58q-31 -61 -95 -61q-26 0 -52 13z" unicode="Õ"/>
<glyph glyph-name="Odieresis" d="M605 153q0 -68 -42.5 -110.5t-110.5 -42.5h-235q-68 0 -110 42.5t-42 110.5v394q0 69 42 111t110 42h235q68 0 110.5 -42t42.5 -111v-394zM486 159v382q0 26 -14.5 41t-40.5 15h-192q-26 0 -40.5 -15t-14.5 -41v-382q0 -26 14.5 -40.5t40.5 -14.5h192q26 0 40.5 14.5 t14.5 40.5zM409 744v121h96v-121h-96zM164 744v121h96v-121h-96z" unicode="Ö"/>
<glyph glyph-name="multiply" horiz-adv-x="512" unicode="×" d="M255 420l150 150l69 -68l-151 -151l147 -147l-68 -68l-147 148l-150 -150l-68 68l150 149l-147 147l68 68z"/>
<glyph glyph-name="Oslash" d="M184 541v-363l241 419h-186q-26 0 -40.5 -15t-14.5 -41zM486 159v365l-243 -420h188q26 0 40.5 14.5t14.5 40.5zM51 -52l55 95q-41 43 -41 110v394q0 69 42 111t110 42h235q1 0 31 -3l58 100l77 -44l-55 -96q42 -42 42 -110v-394q0 -68 -42.5 -110.5t-110.5 -42.5h-235 q-17 0 -32 3l-57 -100z" unicode="Ø"/>
<glyph glyph-name="Ugrave" d="M486 700h119v-547q0 -68 -42.5 -110.5t-110.5 -42.5h-235q-68 0 -110 42.5t-42 110.5v547h119v-541q0 -26 14.5 -40.5t40.5 -14.5h192q26 0 40.5 14.5t14.5 40.5v541zM410 740h-95l-115 145h123z" unicode="Ù"/>
<glyph glyph-name="Uacute" d="M486 700h119v-547q0 -68 -42.5 -110.5t-110.5 -42.5h-235q-68 0 -110 42.5t-42 110.5v547h119v-541q0 -26 14.5 -40.5t40.5 -14.5h192q26 0 40.5 14.5t14.5 40.5v541zM355 740h-95l87 145h124z" unicode="Ú"/>
<glyph glyph-name="Ucircumflex" d="M397 885l104 -145h-103l-64 87l-65 -87h-100l104 145h124zM486 700h119v-547q0 -68 -42.5 -110.5t-110.5 -42.5h-235q-68 0 -110 42.5t-42 110.5v547h119v-541q0 -26 14.5 -40.5t40.5 -14.5h192q26 0 40.5 14.5t14.5 40.5v541z" unicode="Û"/>
<glyph glyph-name="Udieresis" d="M486 700h119v-547q0 -68 -42.5 -110.5t-110.5 -42.5h-235q-68 0 -110 42.5t-42 110.5v547h119v-541q0 -26 14.5 -40.5t40.5 -14.5h192q26 0 40.5 14.5t14.5 40.5v541zM409 744v121h96v-121h-96zM164 744v121h96v-121h-96z" unicode="Ü"/>
<glyph glyph-name="Yacute" horiz-adv-x="635" unicode="Ý" d="M337 740h-95l87 145h124zM377 257v-257h-119v257l-256 443h142l176 -323l178 323h134z"/>
<glyph glyph-name="Thorn" horiz-adv-x="612" unicode="Þ" d="M580 277q0 -68 -42.5 -110.5t-110.5 -42.5h-243v-124h-119v700h119v-125h243q68 0 110.5 -42t42.5 -111v-145zM461 283v134q0 25 -14.5 40t-40.5 15h-222v-244h222q26 0 40.5 14.5t14.5 40.5z"/>
<glyph glyph-name="germandbls" horiz-adv-x="581" unicode="ß" d="M251 0v96h108q26 0 40.5 14.5t14.5 40.5v139q0 26 -14.5 40.5t-40.5 14.5h-83v96h81q25 0 40 14.5t15 40.5v93q0 26 -14.5 40.5t-40.5 14.5h-129q-25 0 -38.5 -13.5t-13.5 -37.5v-593h-111v591q0 67 41 108t107 41h157q69 0 111 -42t42 -111v-59q0 -98 -78 -135 q38 -17 59.5 -52.5t21.5 -82.5v-105q0 -69 -42.5 -111t-110.5 -42h-122z"/>
<glyph glyph-name="agrave" horiz-adv-x="546" unicode="à" d="M337 580h-88l-120 160h116zM318 96q48 0 51 46v23q0 25 -13.5 38.5t-37.5 13.5h-113q-24 0 -37.5 -13.5t-13.5 -38.5v-18q0 -24 13.5 -37.5t37.5 -13.5h113zM481 0h-85l-14 44q-41 -44 -111 -44h-79q-67 0 -108 41t-41 108v7q0 67 41 108t108 41h79q59 0 98 -33v101 q0 24 -13.5 37.5t-37.5 13.5h-90q-25 0 -38.5 -13.5t-13.5 -37.5v-23h-111v21q0 67 41 108t108 41h118q67 0 108 -41t41 -108v-371z"/>
<glyph glyph-name="aacute" horiz-adv-x="546" unicode="á" d="M297 580h-88l92 160h116zM318 96q48 0 51 46v23q0 25 -13.5 38.5t-37.5 13.5h-113q-24 0 -37.5 -13.5t-13.5 -38.5v-18q0 -24 13.5 -37.5t37.5 -13.5h113zM481 0h-85l-14 44q-41 -44 -111 -44h-79q-67 0 -108 41t-41 108v7q0 67 41 108t108 41h79q59 0 98 -33v101 q0 24 -13.5 37.5t-37.5 13.5h-90q-25 0 -38.5 -13.5t-13.5 -37.5v-23h-111v21q0 67 41 108t108 41h118q67 0 108 -41t41 -108v-371z"/>
<glyph glyph-name="acircumflex" horiz-adv-x="546" unicode="â" d="M327 740l101 -160h-103l-54 90l-55 -90h-100l101 160h110zM318 96q48 0 51 46v23q0 25 -13.5 38.5t-37.5 13.5h-113q-24 0 -37.5 -13.5t-13.5 -38.5v-18q0 -24 13.5 -37.5t37.5 -13.5h113zM481 0h-85l-14 44q-41 -44 -111 -44h-79q-67 0 -108 41t-41 108v7q0 67 41 108 t108 41h79q59 0 98 -33v101q0 24 -13.5 37.5t-37.5 13.5h-90q-25 0 -38.5 -13.5t-13.5 -37.5v-23h-111v21q0 67 41 108t108 41h118q67 0 108 -41t41 -108v-371z"/>
<glyph glyph-name="atilde" horiz-adv-x="546" unicode="ã" d="M214 658q-10 7 -20 7q-16 0 -27 -17l-33 -53l-64 38l37 60q32 55 91 55q29 0 58 -17l77 -48q10 -7 20 -7q16 0 27 17l30 47l64 -37l-33 -55q-33 -56 -91 -56q-29 0 -59 18zM318 96q48 0 51 46v23q0 25 -13.5 38.5t-37.5 13.5h-113q-24 0 -37.5 -13.5t-13.5 -38.5v-18 q0 -24 13.5 -37.5t37.5 -13.5h113zM481 0h-85l-14 44q-41 -44 -111 -44h-79q-67 0 -108 41t-41 108v7q0 67 41 108t108 41h79q59 0 98 -33v101q0 24 -13.5 37.5t-37.5 13.5h-90q-25 0 -38.5 -13.5t-13.5 -37.5v-23h-111v21q0 67 41 108t108 41h118q67 0 108 -41t41 -108 v-371z"/>
<glyph glyph-name="adieresis" horiz-adv-x="546" unicode="ä" d="M326 588v121h96v-121h-96zM121 588v121h96v-121h-96zM318 96q48 0 51 46v23q0 25 -13.5 38.5t-37.5 13.5h-113q-24 0 -37.5 -13.5t-13.5 -38.5v-18q0 -24 13.5 -37.5t37.5 -13.5h113zM481 0h-85l-14 44q-41 -44 -111 -44h-79q-67 0 -108 41t-41 108v7q0 67 41 108t108 41 h79q59 0 98 -33v101q0 24 -13.5 37.5t-37.5 13.5h-90q-25 0 -38.5 -13.5t-13.5 -37.5v-23h-111v21q0 67 41 108t108 41h118q67 0 108 -41t41 -108v-371z"/>
<glyph glyph-name="aring" horiz-adv-x="546" unicode="å" d="M229 654q0 -49 43 -49t43 49t-43 49t-43 -49zM163 654q0 45 30.5 73t78.5 28q49 0 79 -28t30 -73t-30 -73t-79 -28q-48 0 -78.5 28t-30.5 73zM318 96q48 0 51 46v23q0 25 -13.5 38.5t-37.5 13.5h-113q-24 0 -37.5 -13.5t-13.5 -38.5v-18q0 -24 13.5 -37.5t37.5 -13.5h113 zM481 0h-85l-14 44q-41 -44 -111 -44h-79q-67 0 -108 41t-41 108v7q0 67 41 108t108 41h79q59 0 98 -33v101q0 24 -13.5 37.5t-37.5 13.5h-90q-25 0 -38.5 -13.5t-13.5 -37.5v-23h-111v21q0 67 41 108t108 41h118q67 0 108 -41t41 -108v-371z"/>
<glyph glyph-name="ae" horiz-adv-x="862" unicode="æ" d="M481 369v-60h215v60q0 55 -55 55h-105q-55 0 -55 -55zM318 96q24 0 37.5 13.5t13.5 37.5v18q0 25 -13.5 38.5t-37.5 13.5h-113q-24 0 -37.5 -13.5t-13.5 -38.5v-18q0 -24 13.5 -37.5t37.5 -13.5h113zM696 170h111v-17q0 -68 -42 -110.5t-111 -42.5h-110q-80 0 -122 55 q-41 -55 -119 -55h-111q-67 0 -108 41t-41 108v7q0 67 41 108t108 41h79q59 0 98 -33v101q0 24 -13.5 37.5t-37.5 13.5h-90q-25 0 -38.5 -13.5t-13.5 -37.5v-23h-111v21q0 67 41 108t108 41h96q75 0 116 -51q43 51 118 51h110q69 0 111 -42t42 -111v-147h-326v-69 q0 -26 14.5 -40.5t40.5 -14.5h105q26 0 40.5 14.5t14.5 40.5v19z"/>
<glyph glyph-name="ccedilla" horiz-adv-x="538" unicode="ç" d="M315 -200h-103l55 80l-55 80h103l51 -80zM382 185h111v-32q0 -68 -42 -110.5t-111 -42.5h-133q-68 0 -110 42.5t-42 110.5v214q0 69 42 111t110 42h133q69 0 111 -42t42 -111v-32h-111v34q0 26 -14.5 40.5t-40.5 14.5h-105q-26 0 -41 -14.5t-15 -40.5v-218 q0 -26 15 -40.5t41 -14.5h105q25 0 40 15t15 40v34z"/>
<glyph glyph-name="egrave" horiz-adv-x="548" unicode="è" d="M338 580h-88l-120 160h116zM166 369v-60h216v60q0 26 -14.5 40.5t-40.5 14.5h-105q-26 0 -41 -14.5t-15 -40.5zM382 170h111v-17q0 -68 -42 -110.5t-111 -42.5h-133q-68 0 -110 42.5t-42 110.5v214q0 69 42 111t110 42h133q69 0 111 -42t42 -111v-147h-327v-69 q0 -26 15 -40.5t41 -14.5h105q25 0 40 15t15 40v19z"/>
<glyph glyph-name="eacute" horiz-adv-x="548" unicode="é" d="M166 369v-60h216v60q0 26 -14.5 40.5t-40.5 14.5h-105q-26 0 -41 -14.5t-15 -40.5zM382 170h111v-17q0 -68 -42 -110.5t-111 -42.5h-133q-68 0 -110 42.5t-42 110.5v214q0 69 42 111t110 42h133q69 0 111 -42t42 -111v-147h-327v-69q0 -26 15 -40.5t41 -14.5h105 q25 0 40 15t15 40v19zM298 580h-88l92 160h116z"/>
<glyph glyph-name="ecircumflex" horiz-adv-x="548" unicode="ê" d="M166 369v-60h216v60q0 26 -14.5 40.5t-40.5 14.5h-105q-26 0 -41 -14.5t-15 -40.5zM382 170h111v-17q0 -68 -42 -110.5t-111 -42.5h-133q-68 0 -110 42.5t-42 110.5v214q0 69 42 111t110 42h133q69 0 111 -42t42 -111v-147h-327v-69q0 -26 15 -40.5t41 -14.5h105 q25 0 40 15t15 40v19zM328 740l101 -160h-103l-54 90l-55 -90h-100l101 160h110z"/>
<glyph glyph-name="edieresis" horiz-adv-x="548" unicode="ë" d="M166 369v-60h216v60q0 26 -14.5 40.5t-40.5 14.5h-105q-26 0 -41 -14.5t-15 -40.5zM382 170h111v-17q0 -68 -42 -110.5t-111 -42.5h-133q-68 0 -110 42.5t-42 110.5v214q0 69 42 111t110 42h133q69 0 111 -42t42 -111v-147h-327v-69q0 -26 15 -40.5t41 -14.5h105 q25 0 40 15t15 40v19zM328 588v121h96v-121h-96zM123 588v121h96v-121h-96z"/>
<glyph glyph-name="igrave" horiz-adv-x="241" unicode="ì" d="M175 580h-88l-120 160h116zM65 0v520h111v-520h-111z"/>
<glyph glyph-name="iacute" horiz-adv-x="241" unicode="í" d="M65 0v520h111v-520h-111zM155 580h-88l92 160h116z"/>
<glyph glyph-name="icircumflex" horiz-adv-x="241" unicode="î" d="M65 0v520h111v-520h-111zM177 740l101 -160h-103l-54 90l-55 -90h-100l101 160h110z"/>
<glyph glyph-name="idieresis" horiz-adv-x="241" unicode="ï" d="M65 0v520h111v-520h-111zM176 588v121h96v-121h-96zM-29 588v121h96v-121h-96z"/>
<glyph glyph-name="eth" horiz-adv-x="558" unicode="ð" d="M327 96q25 0 40 15t15 40v153q0 26 -14.5 40.5t-40.5 14.5h-105q-26 0 -41 -14.5t-15 -40.5v-153q0 -26 15 -40.5t41 -14.5h105zM158 740h147l54 -57l91 53l33 -57l-78 -45l34 -35q54 -56 54 -122v-324q0 -68 -42 -110.5t-110 -42.5h-133q-69 0 -111 42.5t-42 110.5v149 q0 69 42 111t111 42h72q61 0 102 -35v67q0 24 -16 42l-52 52l-93 -53l-33 57l78 45z"/>
<glyph glyph-name="ntilde" horiz-adv-x="568" unicode="ñ" d="M225 658q-10 7 -20 7q-16 0 -27 -17l-33 -53l-64 38l37 60q32 55 91 55q29 0 58 -17l77 -48q10 -7 20 -7q16 0 27 17l30 47l64 -37l-33 -55q-33 -56 -91 -56q-29 0 -59 18zM503 0h-111v369q0 26 -14.5 40.5t-40.5 14.5h-105q-53 0 -56 -50v-374h-111v520h85l13 -47 q42 47 116 47h71q69 0 111 -42t42 -111v-367z"/>
<glyph glyph-name="ograve" horiz-adv-x="548" unicode="ò" d="M338 580h-88l-120 160h116zM493 153q0 -68 -42 -110.5t-111 -42.5h-133q-68 0 -110 42.5t-42 110.5v214q0 69 42 111t110 42h133q69 0 111 -42t42 -111v-214zM382 151v218q0 26 -14.5 40.5t-40.5 14.5h-105q-26 0 -41 -14.5t-15 -40.5v-218q0 -26 15 -40.5t41 -14.5h105 q25 0 40 15t15 40z"/>
<glyph glyph-name="oacute" horiz-adv-x="548" unicode="ó" d="M493 153q0 -68 -42 -110.5t-111 -42.5h-133q-68 0 -110 42.5t-42 110.5v214q0 69 42 111t110 42h133q69 0 111 -42t42 -111v-214zM382 151v218q0 26 -14.5 40.5t-40.5 14.5h-105q-26 0 -41 -14.5t-15 -40.5v-218q0 -26 15 -40.5t41 -14.5h105q25 0 40 15t15 40zM298 580 h-88l92 160h116z"/>
<glyph glyph-name="ocircumflex" horiz-adv-x="548" unicode="ô" d="M493 153q0 -68 -42 -110.5t-111 -42.5h-133q-68 0 -110 42.5t-42 110.5v214q0 69 42 111t110 42h133q69 0 111 -42t42 -111v-214zM382 151v218q0 26 -14.5 40.5t-40.5 14.5h-105q-26 0 -41 -14.5t-15 -40.5v-218q0 -26 15 -40.5t41 -14.5h105q25 0 40 15t15 40zM328 740 l101 -160h-103l-54 90l-55 -90h-100l101 160h110z"/>
<glyph glyph-name="otilde" horiz-adv-x="548" unicode="õ" d="M215 658q-10 7 -20 7q-16 0 -27 -17l-33 -53l-64 38l37 60q32 55 91 55q29 0 58 -17l77 -48q10 -7 20 -7q16 0 27 17l30 47l64 -37l-33 -55q-33 -56 -91 -56q-29 0 -59 18zM493 153q0 -68 -42 -110.5t-111 -42.5h-133q-68 0 -110 42.5t-42 110.5v214q0 69 42 111t110 42 h133q69 0 111 -42t42 -111v-214zM382 151v218q0 26 -14.5 40.5t-40.5 14.5h-105q-26 0 -41 -14.5t-15 -40.5v-218q0 -26 15 -40.5t41 -14.5h105q25 0 40 15t15 40z"/>
<glyph glyph-name="odieresis" horiz-adv-x="548" unicode="ö" d="M493 153q0 -68 -42 -110.5t-111 -42.5h-133q-68 0 -110 42.5t-42 110.5v214q0 69 42 111t110 42h133q69 0 111 -42t42 -111v-214zM382 151v218q0 26 -14.5 40.5t-40.5 14.5h-105q-26 0 -41 -14.5t-15 -40.5v-218q0 -26 15 -40.5t41 -14.5h105q25 0 40 15t15 40zM328 588 v121h96v-121h-96zM123 588v121h96v-121h-96z"/>
<glyph glyph-name="divide" horiz-adv-x="512" unicode="÷" d="M193 504v144h127v-144h-127zM193 54v143h127v-143h-127zM30 399h452v-96h-452v96z"/>
<glyph glyph-name="oslash" horiz-adv-x="548" unicode="ø" d="M382 151v220l-160 -275h105q25 0 40 15t15 40zM166 146l160 278h-104q-26 0 -41 -14.5t-15 -40.5v-223zM493 153q0 -68 -42 -110.5t-111 -42.5h-133q-22 0 -38 4l-42 -74l-64 37l40 70q-48 43 -48 116v214q0 69 42 111t110 42h133q15 0 39 -4l44 75l64 -38l-41 -71 q47 -42 47 -115v-214z"/>
<glyph glyph-name="ugrave" horiz-adv-x="568" unicode="ù" d="M378 580h-88l-120 160h116zM65 520h111v-369q0 -26 15 -40.5t41 -14.5h105q24 0 39 13.5t16 36.5v374h111v-520h-85l-14 47q-42 -47 -114 -47h-72q-69 0 -111 42t-42 111v367z"/>
<glyph glyph-name="uacute" horiz-adv-x="568" unicode="ú" d="M65 520h111v-369q0 -26 15 -40.5t41 -14.5h105q24 0 39 13.5t16 36.5v374h111v-520h-85l-14 47q-42 -47 -114 -47h-72q-69 0 -111 42t-42 111v367zM278 580h-88l92 160h116z"/>
<glyph glyph-name="ucircumflex" horiz-adv-x="568" unicode="û" d="M65 520h111v-369q0 -26 15 -40.5t41 -14.5h105q24 0 39 13.5t16 36.5v374h111v-520h-85l-14 47q-42 -47 -114 -47h-72q-69 0 -111 42t-42 111v367zM338 740l101 -160h-103l-54 90l-55 -90h-100l101 160h110z"/>
<glyph glyph-name="udieresis" horiz-adv-x="568" unicode="ü" d="M65 520h111v-369q0 -26 15 -40.5t41 -14.5h105q24 0 39 13.5t16 36.5v374h111v-520h-85l-14 47q-42 -47 -114 -47h-72q-69 0 -111 42t-42 111v367zM338 588v121h96v-121h-96zM133 588v121h96v-121h-96z"/>
<glyph glyph-name="yacute" horiz-adv-x="528" unicode="ý" d="M288 580h-88l92 160h116zM258 -200h-119l72 200h-13l-188 520h119l139 -396l138 396h112z"/>
<glyph glyph-name="thorn" horiz-adv-x="558" unicode="þ" d="M392 151v218q0 26 -14.5 40.5t-40.5 14.5h-105q-53 0 -56 -50v-223q0 -26 15 -40.5t41 -14.5h105q25 0 40 15t15 40zM65 -200v940h111v-255q41 35 103 35h71q69 0 111 -42t42 -111v-214q0 -68 -42 -110.5t-111 -42.5h-71q-62 0 -103 35v-235h-111z"/>
<glyph glyph-name="OE" horiz-adv-x="1011" unicode="Œ" d="M486 159v387q-1 24 -16 37.5t-39 13.5h-192q-26 0 -40.5 -15t-14.5 -41v-382q0 -26 14.5 -40.5t40.5 -14.5h192q26 0 40.5 14.5t14.5 40.5zM486 0v32q-40 -32 -99 -32h-170q-68 0 -110 42.5t-42 110.5v394q0 69 42 111t110 42h170q57 0 99 -32v32h470v-103h-351v-195h301 v-103h-301v-195h351v-104h-470z"/>
<glyph glyph-name="oe" horiz-adv-x="875" unicode="œ" d="M493 369v-60h216v60q0 26 -15 40.5t-41 14.5h-105q-26 0 -40.5 -14.5t-14.5 -40.5zM382 151v218q0 26 -14.5 40.5t-40.5 14.5h-105q-26 0 -41 -14.5t-15 -40.5v-218q0 -26 15 -40.5t41 -14.5h105q25 0 40 15t15 40zM709 170h111v-17q0 -68 -42 -110.5t-111 -42.5h-110 q-80 0 -120 59q-38 -59 -120 -59h-110q-68 0 -110 42.5t-42 110.5v214q0 69 42 111t110 42h110q82 0 120 -59q40 59 120 59h110q69 0 111 -42t42 -111v-147h-327v-69q0 -25 14.5 -40t40.5 -15h105q26 0 41 14.5t15 40.5v19z"/>
<glyph glyph-name="Scaron" horiz-adv-x="660" unicode="Š" d="M268 740l-104 145h103l64 -87l65 87h100l-104 -145h-124zM443 402q68 0 110 -42t42 -111v-96q0 -69 -42 -111t-110 -42h-225q-68 0 -110.5 42t-42.5 111v62h119v-56q0 -26 14.5 -40.5t40.5 -14.5h182q26 0 40.5 14.5t14.5 40.5v85q0 26 -15 40.5t-40 14.5h-204 q-68 0 -110 42t-42 111v95q0 69 42 111t110 42h225q68 0 110.5 -42t42.5 -111v-62h-119v56q0 26 -14.5 41t-40.5 15h-182q-26 0 -40.5 -15t-14.5 -41v-83q0 -26 14.5 -41t40.5 -15h204z"/>
<glyph glyph-name="scaron" horiz-adv-x="548" unicode="š" d="M345 306q66 0 107 -41t41 -108v-8q0 -67 -41 -108t-107 -41h-141q-67 0 -108 41t-41 108v20h111v-22q0 -24 13.5 -37.5t38.5 -13.5h113q24 0 37.5 14t13.5 38v18q0 24 -13.5 38t-37.5 14h-123q-66 0 -107 41t-41 108v4q0 67 41 108t107 41h131q67 0 108 -41t41 -108v-20 h-111v22q0 24 -13.5 37.5t-37.5 13.5h-103q-25 0 -38.5 -13.5t-13.5 -37.5v-16q0 -24 13.5 -37.5t38.5 -13.5h122zM218 580l-101 160h103l54 -90l55 90h100l-101 -160h-110z"/>
<glyph glyph-name="Ydieresis" horiz-adv-x="635" unicode="Ÿ" d="M391 744v121h96v-121h-96zM146 744v121h96v-121h-96zM377 257v-257h-119v257l-256 443h142l176 -323l178 323h134z"/>
<glyph glyph-name="circumflex" horiz-adv-x="352" unicode="ˆ" d="M231 740l101 -160h-103l-54 90l-55 -90h-100l101 160h110z"/>
<glyph glyph-name="tilde" horiz-adv-x="444" unicode="˜" d="M164 658q-10 7 -20 7q-16 0 -27 -17l-33 -53l-64 38l37 60q32 55 91 55q29 0 58 -17l77 -48q10 -7 20 -7q16 0 27 17l30 47l64 -37l-33 -55q-33 -56 -91 -56q-29 0 -59 18z"/>
<glyph glyph-name="pi" horiz-adv-x="546" unicode="π" d="M176 424v-424h-111v424h-65v96h546v-96h-65v-424h-112v424h-193z"/>
<glyph glyph-name="endash" horiz-adv-x="510" unicode="–" d="M5 214v96h500v-96h-500z"/>
<glyph glyph-name="emdash" horiz-adv-x="1010" unicode="—" d="M5 214v96h1000v-96h-1000z"/>
<glyph glyph-name="quoteleft" horiz-adv-x="256" unicode="‘" d="M191 806v-258h-126l45 258h81z"/>
<glyph glyph-name="quotesinglbase" horiz-adv-x="256" unicode="‚" d="M65 -115v259h126l-45 -259h-81z"/>
<glyph glyph-name="quotedblleft" horiz-adv-x="428" unicode="“" d="M191 806v-258h-126l45 258h81zM363 806v-258h-127l45 258h82z"/>
<glyph glyph-name="quotedblright" horiz-adv-x="428" unicode="”" d="M236 548v258h127l-45 -258h-82zM65 548v258h126l-45 -258h-81z"/>
<glyph glyph-name="dagger" horiz-adv-x="549" unicode="†" d="M334 -60h-119l15 455l-210 -15v104l210 -15l-15 231h119l-15 -231l210 15v-104l-210 15z"/>
<glyph glyph-name="daggerdbl" horiz-adv-x="549" unicode="‡" d="M215 320l15 113l-210 -15v103l210 -15l-15 194h119l-15 -194l210 15v-103l-210 15l15 -113l-15 -113l210 15v-103l-210 15l15 -194h-119l15 194l-210 -15v103l210 -15z"/>
<glyph glyph-name="ellipsis" horiz-adv-x="949" unicode="…" d="M758 0v144h126v-144h-126zM411 0v144h127v-144h-127zM65 0v144h126v-144h-126z"/>
<glyph glyph-name="perthousand" horiz-adv-x="1159" unicode="‰" d="M1109 76q0 -34 -20.5 -55t-55.5 -21h-113q-34 0 -55 21t-21 55v198q0 34 21 55t55 21h113q35 0 55.5 -21t20.5 -55v-198zM1033 94v162q0 27 -26 27h-60q-27 0 -27 -27v-162q0 -26 27 -26h60q26 0 26 26zM107 0l482 700h98l-481 -700h-99zM744 76q0 -34 -21 -55t-55 -21 h-112q-34 0 -55 21t-21 55v198q0 34 21 55t55 21h112q34 0 55 -21t21 -55v-198zM668 94v162q0 27 -26 27h-60q-26 0 -26 -27v-162q0 -26 26 -26h60q26 0 26 26zM315 426q0 -34 -20.5 -55t-55.5 -21h-113q-34 0 -55 21t-21 55v198q0 34 21 55t55 21h113q35 0 55.5 -21 t20.5 -55v-198zM239 444v162q0 27 -26 27h-61q-26 0 -26 -27v-162q0 -26 26 -26h61q26 0 26 26z"/>
<glyph glyph-name="guilsinglleft" horiz-adv-x="270" unicode="‹" d="M240 56l-220 154v100l220 154v-112l-127 -92l127 -91v-113z"/>
<glyph glyph-name="guilsinglright" horiz-adv-x="270" unicode="›" d="M23 464l219 -154v-100l-219 -154v112l126 92l-126 91v113z"/>
<glyph glyph-name="fraction" horiz-adv-x="620" unicode="⁄" d="M20 0l482 700h98l-482 -700h-98z"/>
<glyph glyph-name="Euro" horiz-adv-x="635" unicode="€" d="M25 390v88h65v69q0 69 42 111t110 42h195q68 0 110.5 -42t42.5 -111v-84h-119v78q0 26 -14.5 41t-40.5 15h-152q-26 0 -40.5 -15t-14.5 -41v-63h180v-88h-180v-79h180v-89h-180v-63q0 -26 14.5 -40.5t40.5 -14.5h152q26 0 40.5 14.5t14.5 40.5v79h119v-85 q0 -68 -42.5 -110.5t-110.5 -42.5h-195q-68 0 -110 42.5t-42 110.5v69h-65v89h65v79h-65z"/>
<glyph glyph-name="trademark" horiz-adv-x="746" unicode="™" d="M618 350v216l-95 -166l-96 166v-216h-76v350h74l98 -169l97 169h73v-350h-75zM23 633v67h297v-67h-111v-283h-76v283h-110z"/>
<glyph glyph-name="arrowleft" horiz-adv-x="953" unicode="←" d="M933 328h-696l286 -286l-79 -78l-424 424l424 424l79 -78l-286 -286h696v-120z"/>
<glyph glyph-name="arrowup" horiz-adv-x="888" unicode="↑" d="M384 -68v696l-286 -286l-78 79l424 424l424 -424l-78 -79l-286 286v-696h-120z"/>
<glyph glyph-name="arrowright" horiz-adv-x="953" unicode="→" d="M20 448h696l-286 286l79 78l424 -424l-424 -424l-79 78l286 286h-696v120z"/>
<glyph glyph-name="arrowdown" horiz-adv-x="888" unicode="↓" d="M504 846v-696l286 286l78 -79l-424 -424l-424 424l78 79l286 -286v696h120z"/>
<glyph glyph-name="partialdiff" horiz-adv-x="558" unicode="∂" d="M327 96q25 0 40 15t15 40v158q-1 24 -16 37t-39 13h-105q-26 0 -41 -14.5t-15 -40.5v-153q0 -26 15 -40.5t41 -14.5h105zM158 740h147l134 -141q54 -56 54 -122v-324q0 -68 -42 -110.5t-110 -42.5h-133q-69 0 -111 42.5t-42 110.5v149q0 69 42 111t111 42h72 q61 0 102 -35v67q0 24 -16 42z"/>
<glyph glyph-name="emptyset" horiz-adv-x="647" unicode="∅" d="M168 351q0 -43 13 -73l221 221q-35 22 -79 22q-68 0 -111.5 -47.5t-43.5 -122.5zM478 351q0 39 -14 73l-222 -221q36 -22 81 -22q68 0 111.5 47.5t43.5 122.5zM57 351q0 118 74 192t192 74q87 0 153 -44l97 97l69 -68l-97 -97q44 -68 44 -154q0 -118 -74 -192t-192 -74 q-87 0 -155 44l-95 -95l-68 68l95 95q-43 68 -43 154z"/>
<glyph glyph-name="product" d="M486 0v597h-302v-597h-119v700h540v-700h-119z" unicode="∏"/>
<glyph glyph-name="summation" horiz-adv-x="575" unicode="∑" d="M370 382v-63l-163 -215h328v-104h-470v104l188 246l-188 247v103h470v-103h-328z"/>
<glyph glyph-name="minus" horiz-adv-x="512" unicode="−" d="M30 399h452v-96h-452v96z"/>
<glyph glyph-name="radical" horiz-adv-x="626" unicode="√" d="M244 0l-149 424h-95v96h178l136 -395l198 575h114l-244 -700h-138z"/>
<glyph glyph-name="infinity" horiz-adv-x="623" unicode="∞" d="M159 286q27 0 52 27l41 38l-41 38q-25 27 -52 27q-23 0 -37.5 -14.5t-14.5 -37.5v-26q0 -23 14.5 -37.5t37.5 -14.5zM412 389l-42 -38l42 -38q25 -27 52 -27q23 0 37.5 14.5t14.5 37.5v26q0 23 -14.5 37.5t-37.5 14.5q-27 0 -52 -27zM379 236l-68 61l-67 -61 q-41 -43 -95 -43q-57 0 -93 35.5t-36 93.5v58q0 58 36 93.5t93 35.5q54 0 95 -43l67 -62l68 62q41 43 95 43q57 0 93 -35.5t36 -93.5v-58q0 -58 -36 -93.5t-93 -35.5q-54 0 -95 43z"/>
<glyph glyph-name="approxequal" horiz-adv-x="512" unicode="≈" d="M182 244q-9 6 -19 6q-18 0 -27 -18l-30 -54l-67 31l33 63q30 61 94 61q27 0 52 -13l115 -61q7 -5 19 -5q18 0 28 18l26 49l67 -32l-29 -57q-31 -61 -94 -61q-27 0 -53 13zM182 447q-9 6 -19 6q-18 0 -27 -18l-30 -54l-67 31l33 63q30 61 94 61q27 0 52 -13l115 -61 q7 -5 19 -5q18 0 28 18l26 49l67 -32l-29 -57q-31 -61 -94 -61q-27 0 -53 13z"/>
<glyph glyph-name="notequal" horiz-adv-x="512" unicode="≠" d="M30 274h151l51 154h-202v96h233l44 130h98l-44 -130h121v-96h-152l-51 -154h203v-96h-235l-42 -130h-98l43 130h-120v96z"/>
<glyph glyph-name="lessequal" horiz-adv-x="512" unicode="≤" d="M30 96h452v-96h-452v96zM482 153l-452 172v97l452 173v-107l-331 -114l331 -115v-106z"/>
<glyph glyph-name="greaterequal" horiz-adv-x="512" unicode="≥" d="M30 96h452v-96h-452v96zM30 595l452 -173v-97l-452 -172v106l332 115l-332 114v107z"/>
</font>
</defs>
</svg>
